<svg width="1600" height="179" viewBox="0 0 1600 179" fill="none" xmlns="http://www.w3.org/2000/svg">
<path d="M1525.69 100.46C1497.81 99.54 1470.45 98.63 1441.5 106C1407.36 114.68 1376.56 129.36 1342.97 145.36C1330.31 151.39 1317.26 157.61 1303.48 163.77C1217.34 202.28 1126.92 149.37 1051.14 105.02C1025.32 89.91 1001.2 75.79 979.52 66.63C925.67 43.86 857.39 35.53 808.17 65.1C799.38 70.38 790.05 78.36 780.11 86.86C753.63 109.51 722.77 135.9 686.04 125.07C668.15 119.8 657.17 106.85 645.71 93.35C622.63 66.15 597.65 36.71 510.56 63.26C505.28 64.87 499.98 66.56 494.66 68.27C465.01 77.76 434.74 87.45 403.93 83.23C361.54 77.42 332.14 59.84 302.67 42.22C273.65 24.87 244.56 7.48 202.91 1.23C197.3 0.39 191.73 0.01 186.19 0H185.86C159.72 0.04 134.29 8.45 108.65 16.94C90.07 23.09 71.38 29.28 52.22 32.34C34.6 35.16 17.19 35.32 0 33.47V179H1600V97.65C1598.16 97.96 1596.32 98.25 1594.47 98.52C1570.49 101.94 1547.92 101.2 1525.69 100.46Z" fill="white"/>
</svg>
