<svg width="1600" height="106" viewBox="0 0 1600 106" fill="none" xmlns="http://www.w3.org/2000/svg">
<path fill-rule="evenodd" clip-rule="evenodd" d="M1454.04 28.6253C1473.98 29.1558 1494.23 29.6942 1515.74 27.222C1546.76 23.6569 1575.8 13.9146 1600 0H0V29.4148C42.1819 44.4901 86.3778 54.6271 132.081 48.7433C149.269 46.5324 166.039 42.0678 182.707 37.6301C210.684 30.1818 238.375 22.8094 267.282 26.2964C304.645 30.8045 330.745 43.3576 356.781 55.8794C383.222 68.596 409.595 81.2804 447.63 85.4733C475.275 88.5199 502.427 81.5275 529.026 74.6775C533.799 73.4482 538.555 72.2234 543.293 71.062C623.618 51.3699 645.054 66.8792 666.281 82.2366C675.955 89.2359 685.586 96.2037 700.728 99.7931C742.408 107.442 771.692 92.2584 797.331 78.9639C801.746 76.6745 806.053 74.4412 810.297 72.3901C854.462 51.0443 915.721 57.0585 964.031 73.4912C1040.54 99.5147 1143.89 130.41 1254.68 74.316C1267.04 69.871 1278.75 65.3827 1290.1 61.0308C1320.24 49.4795 1347.87 38.8894 1378.5 32.6224C1404.48 27.3073 1429.02 27.96 1454.04 28.6253Z" fill="white"/>
</svg>
