<svg width="1595" height="106" viewBox="0 0 1595 106" fill="none" xmlns="http://www.w3.org/2000/svg">
<path fill-rule="evenodd" clip-rule="evenodd" d="M1449.47 28.626C1469.36 29.1562 1489.54 29.6943 1510.99 27.2217C1541.91 23.6572 1570.85 13.915 1594.98 0H0V29.415C42.0498 44.4902 86.1064 54.627 131.666 48.7432C148.8 46.5322 165.517 42.0674 182.133 37.6299C210.022 30.1816 237.627 22.8086 266.443 26.2959C303.688 30.8047 329.707 43.3574 355.661 55.8789C382.019 68.5957 408.31 81.2803 446.225 85.4736C473.782 88.5195 500.851 81.5273 527.365 74.6777C532.124 73.4482 536.865 72.2236 541.588 71.0625C621.66 51.3701 643.029 66.8799 664.189 82.2373C673.833 89.2363 683.434 96.2041 698.528 99.793C740.079 107.442 769.271 92.2578 794.829 78.9629C799.23 76.6738 803.523 74.4404 807.753 72.3896C851.779 51.0439 912.847 57.0586 961.005 73.4912C1037.27 99.5146 1140.3 130.41 1250.74 74.3164C1263.06 69.8711 1274.74 65.3828 1286.05 61.0312C1316.1 49.4795 1343.64 38.8887 1374.18 32.6221C1400.07 27.3076 1424.54 27.96 1449.47 28.626Z" fill="white" fill-opacity="0.5"/>
</svg>
